# xmcd
#
# Track frame offsets: 
#        150
#        17194
#        42469
#        64660
#        86124
#        106085
#        125525
#        146118
#        163388
#        182421
#        201444
#        229614
#        249045
#        267001
#        295956
#        317434
#
# Disc length: 4427 seconds
#
# Revision: 0
# Processed by: cddbd v1.5.1PL2 Copyright (c) Steve Scherf et al.
# Submitted via: ExactAudioCopy v0.95b4
#
DISCID=e2114910
DTITLE=Fabio Concato - Voilà - Concato Live
DYEAR=2003
DGENRE=Folk
TTITLE0=Voilà
TTITLE1=Giulia (Con Stefano Di Battista)
TTITLE2=In Trattoria (Con Anna Oxa)
TTITLE3=Sexy Tango
TTITLE4=Speriamo Che Piova
TTITLE5=Domenica Bestiale
TTITLE6=Naturalmente (Con Stefano Di Battista)
TTITLE7=Tutto Il Sentimento (Todo O Sentimento)
TTITLE8=Buona Notte A Te
TTITLE9=Fiore Di Maggio
TTITLE10=051/222525 (Con Lucio Dalla)
TTITLE11=Troppo Vento
TTITLE12=Guido Piano
TTITLE13=Gigi (Con Samuele Bersani)
TTITLE14=Ti Ricordo Ancora
TTITLE15=Rosalina
EXTD=
EXTT0=
EXTT1=
EXTT2=
EXTT3=
EXTT4=
EXTT5=
EXTT6=
EXTT7=
EXTT8=
EXTT9=
EXTT10=
EXTT11=
EXTT12=
EXTT13=
EXTT14=
EXTT15=
PLAYORDER=
